<mxfile host="app.diagrams.net" modified="2021-11-10T20:23:52.128Z" agent="5.0 (Windows NT 10.0; Win64; x64) AppleWebKit/537.36 (KHTML, like Gecko) Chrome/95.0.4638.69 Safari/537.36 Edg/95.0.1020.44" etag="fsLGOgIT3CfkNC4HRdD7" version="15.7.3" type="github">
  <diagram id="ZjxTOXxgu-pQdIcjKeGE" name="Página-1">
    <mxGraphModel dx="674" dy="649" grid="1" gridSize="10" guides="1" tooltips="1" connect="1" arrows="1" fold="1" page="1" pageScale="1" pageWidth="827" pageHeight="1169" math="0" shadow="0">
      <root>
        <mxCell id="0" />
        <mxCell id="1" parent="0" />
        <mxCell id="Nnd-GyK_ZHzjTs1Ms335-12" style="edgeStyle=orthogonalEdgeStyle;rounded=0;orthogonalLoop=1;jettySize=auto;html=1;exitX=1;exitY=0.5;exitDx=0;exitDy=0;entryX=0;entryY=0.5;entryDx=0;entryDy=0;fontFamily=Times New Roman;" edge="1" parent="1" source="Nnd-GyK_ZHzjTs1Ms335-1" target="Nnd-GyK_ZHzjTs1Ms335-6">
          <mxGeometry relative="1" as="geometry" />
        </mxCell>
        <mxCell id="Nnd-GyK_ZHzjTs1Ms335-1" value="&lt;p&gt;&lt;font style=&quot;font-size: 14px&quot;&gt;Solicitação da Esvolvidos&lt;/font&gt;&lt;br&gt;&lt;/p&gt;" style="rounded=0;whiteSpace=wrap;html=1;" vertex="1" parent="1">
          <mxGeometry x="40" y="180" width="120" height="60" as="geometry" />
        </mxCell>
        <mxCell id="Nnd-GyK_ZHzjTs1Ms335-14" style="edgeStyle=orthogonalEdgeStyle;rounded=0;orthogonalLoop=1;jettySize=auto;html=1;entryX=0;entryY=0.5;entryDx=0;entryDy=0;fontFamily=Times New Roman;" edge="1" parent="1" source="Nnd-GyK_ZHzjTs1Ms335-6" target="Nnd-GyK_ZHzjTs1Ms335-7">
          <mxGeometry relative="1" as="geometry" />
        </mxCell>
        <mxCell id="Nnd-GyK_ZHzjTs1Ms335-6" value="" style="rounded=0;whiteSpace=wrap;html=1;fontFamily=Times New Roman;" vertex="1" parent="1">
          <mxGeometry x="180" y="180" width="120" height="60" as="geometry" />
        </mxCell>
        <mxCell id="Nnd-GyK_ZHzjTs1Ms335-20" style="edgeStyle=orthogonalEdgeStyle;rounded=0;orthogonalLoop=1;jettySize=auto;html=1;exitX=1;exitY=0.5;exitDx=0;exitDy=0;entryX=0;entryY=0.5;entryDx=0;entryDy=0;fontFamily=Times New Roman;fontSize=14;" edge="1" parent="1" source="Nnd-GyK_ZHzjTs1Ms335-7" target="Nnd-GyK_ZHzjTs1Ms335-8">
          <mxGeometry relative="1" as="geometry" />
        </mxCell>
        <mxCell id="Nnd-GyK_ZHzjTs1Ms335-7" value="" style="rounded=0;whiteSpace=wrap;html=1;fontFamily=Times New Roman;" vertex="1" parent="1">
          <mxGeometry x="320" y="180" width="120" height="60" as="geometry" />
        </mxCell>
        <mxCell id="Nnd-GyK_ZHzjTs1Ms335-21" style="edgeStyle=orthogonalEdgeStyle;rounded=0;orthogonalLoop=1;jettySize=auto;html=1;exitX=1;exitY=0.5;exitDx=0;exitDy=0;entryX=0;entryY=0.5;entryDx=0;entryDy=0;fontFamily=Times New Roman;fontSize=14;" edge="1" parent="1" source="Nnd-GyK_ZHzjTs1Ms335-8" target="Nnd-GyK_ZHzjTs1Ms335-9">
          <mxGeometry relative="1" as="geometry" />
        </mxCell>
        <mxCell id="Nnd-GyK_ZHzjTs1Ms335-8" value="" style="rounded=0;whiteSpace=wrap;html=1;fontFamily=Times New Roman;" vertex="1" parent="1">
          <mxGeometry x="460" y="180" width="120" height="60" as="geometry" />
        </mxCell>
        <mxCell id="Nnd-GyK_ZHzjTs1Ms335-9" value="" style="rounded=0;whiteSpace=wrap;html=1;fontFamily=Times New Roman;" vertex="1" parent="1">
          <mxGeometry x="600" y="180" width="120" height="60" as="geometry" />
        </mxCell>
        <mxCell id="Nnd-GyK_ZHzjTs1Ms335-11" value="Necessidade dos Envolvidos" style="text;html=1;strokeColor=none;fillColor=none;align=center;verticalAlign=middle;whiteSpace=wrap;rounded=0;fontFamily=Times New Roman;fontSize=14;" vertex="1" parent="1">
          <mxGeometry x="210" y="195" width="60" height="30" as="geometry" />
        </mxCell>
        <mxCell id="Nnd-GyK_ZHzjTs1Ms335-13" value="Recurso" style="text;html=1;strokeColor=none;fillColor=none;align=center;verticalAlign=middle;whiteSpace=wrap;rounded=0;fontFamily=Times New Roman;fontSize=14;" vertex="1" parent="1">
          <mxGeometry x="350" y="195" width="60" height="30" as="geometry" />
        </mxCell>
        <mxCell id="Nnd-GyK_ZHzjTs1Ms335-18" value="Caso de Uso" style="text;html=1;strokeColor=none;fillColor=none;align=center;verticalAlign=middle;whiteSpace=wrap;rounded=0;fontFamily=Times New Roman;fontSize=14;" vertex="1" parent="1">
          <mxGeometry x="490" y="195" width="60" height="30" as="geometry" />
        </mxCell>
        <mxCell id="Nnd-GyK_ZHzjTs1Ms335-19" value="Caso de Teste" style="text;html=1;strokeColor=none;fillColor=none;align=center;verticalAlign=middle;whiteSpace=wrap;rounded=0;fontFamily=Times New Roman;fontSize=14;" vertex="1" parent="1">
          <mxGeometry x="630" y="195" width="60" height="30" as="geometry" />
        </mxCell>
      </root>
    </mxGraphModel>
  </diagram>
</mxfile>
